<svg width="29" height="34" viewBox="0 0 29 34" fill="none" xmlns="http://www.w3.org/2000/svg">
<path d="M0 5.53786C0 4.24466 0.88913 3.12115 2.14773 2.82398L14.1081 0L26.8202 2.84349C28.0942 3.12847 29 4.25924 29 5.56475V21.2139C29 24.2999 27.301 27.1353 24.5798 28.5907L15.8151 33.2782C14.9934 33.7177 14.0066 33.7177 13.1849 33.2782L4.42025 28.5907C1.69899 27.1353 0 24.2999 0 21.2139V5.53786Z" fill="#00BE5D"/>
<path d="M4.94503 8.84538C4.94503 8.21133 5.37285 7.65712 5.98623 7.49657L14.2134 5.34309L22.9964 7.52104C23.6183 7.67527 24.055 8.23354 24.055 8.87431V18.969C24.055 21.5407 22.6392 23.9035 20.3715 25.1163L15.1576 27.9049C14.7468 28.1246 14.2533 28.1246 13.8425 27.9049L8.62858 25.1163C6.36086 23.9035 4.94503 21.5407 4.94503 18.969V8.84538Z" stroke="white" stroke-width="2.78851"/>
<path d="M10.0391 15.8949L13.0209 20.0777L18.9624 13.6641" stroke="white" stroke-width="2.2308" stroke-linecap="round"/>
</svg>
